<svg width="25" height="25" viewBox="0 0 25 25" fill="none" xmlns="http://www.w3.org/2000/svg">
<path d="M0.856685 12.3526L0.777053 12.3128C0.597883 12.2133 0.458529 12.064 0.35899 11.8748C0.219635 11.616 0.159912 11.3772 0.159912 11.1283L0.17982 10.9989C0.17982 10.7998 0.229589 10.6207 0.319174 10.4514L0.398806 10.3021C0.438621 10.2225 0.498344 10.1528 0.548114 10.0831C0.607837 10.0135 0.617791 9.92389 0.597883 9.84426L0.548114 9.68499C0.488391 9.48592 0.448575 9.28684 0.448575 9.08776L0.418713 8.96831C0.418713 8.74933 0.478437 8.53034 0.617791 8.37108L0.71733 8.24168C0.787007 8.14214 0.8965 8.08242 1.01595 8.0426C1.11549 8.01274 1.18516 7.9132 1.19512 7.79375L1.21502 7.45532C1.21502 7.18657 1.34443 6.93772 1.5435 6.75855L1.7824 6.57938C1.83217 6.52961 1.88194 6.47984 1.92175 6.40021C1.97152 6.34049 1.98147 6.26085 1.97152 6.20113C1.95161 6.10159 1.97152 6.07173 2.02129 6.06178C2.18055 6.1215 2.28009 6.10159 2.34977 6.02196L2.47917 5.85275L2.83751 5.45459C2.93705 5.35505 2.97686 5.17588 2.91714 5.03653L2.79769 4.77773C2.77779 4.718 2.79769 4.64832 2.84746 4.62842C2.97686 4.62842 3.06645 4.67819 3.10626 4.75782L3.14608 4.82749C3.2058 4.94694 3.34516 5.00666 3.4447 4.9569C3.66368 4.87726 3.84285 4.85736 4.01207 4.85736H4.33059C4.54958 4.85736 4.72875 4.70805 4.76856 4.47911C4.80838 4.2004 4.90792 3.98141 5.04727 3.83211C5.19658 3.66289 5.3658 3.53349 5.56488 3.43395C5.82368 3.2946 5.98294 3.09552 6.03271 2.83672C6.10239 2.51819 6.2716 2.28925 6.50054 2.13994L7.25704 1.71193L7.47602 1.58253C7.60542 1.5029 7.72487 1.40336 7.82441 1.28391L8.02349 1.04502C8.12303 0.945477 8.22256 0.8758 8.34201 0.845938C8.44155 0.816077 8.5809 0.796169 8.70035 0.806123L9.09851 0.835984C9.29758 0.835984 9.45685 0.885754 9.61611 0.955431L9.71565 1.0052C9.81519 1.04502 9.91473 1.02511 9.96449 0.955431L10.0541 0.905662L10.4821 0.457737C10.5816 0.358198 10.7011 0.318382 10.8305 0.33829C10.9599 0.358198 11.0893 0.407967 11.2087 0.46769C11.3879 0.567229 11.5372 0.607045 11.7064 0.607045H11.806C12.025 0.607045 12.2439 0.636907 12.4629 0.686676L12.6122 0.726492C12.7615 0.766307 12.9108 0.706584 13.0104 0.587137C13.0402 0.537368 13.1099 0.527414 13.1497 0.567229C13.1796 0.587137 13.1896 0.607045 13.1995 0.636907C13.2194 0.835984 13.3389 0.985293 13.4981 1.03506L13.6574 1.08483C13.8266 1.1346 13.9759 1.24409 14.0755 1.38345C14.175 1.53276 14.2944 1.68207 14.4338 1.7816L14.5333 1.88114C14.6329 1.98068 14.7722 2.0205 14.9116 2.01054H15.4989C15.7378 2.01054 15.9667 2.05036 16.1956 2.1499C16.4146 2.24944 16.6436 2.26934 16.8526 2.18971C17.0716 2.12004 17.3005 2.09017 17.5295 2.12004L17.9575 2.18971C18.1565 2.20962 18.3556 2.30916 18.4751 2.45847L18.5248 2.50824C18.6244 2.60778 18.7239 2.73718 18.8235 2.87653C18.8832 3.00593 19.0225 3.07561 19.1619 3.07561H19.779C19.9283 3.07561 20.0777 3.10547 20.1971 3.17515C20.3265 3.27469 20.436 3.37423 20.5355 3.47377L20.6351 3.60317C20.7545 3.74252 20.8142 3.93164 20.8043 4.13072C20.8043 4.28998 20.9237 4.42934 21.083 4.42934L21.2821 4.44925C21.4214 4.44925 21.5409 4.54879 21.6105 4.67819L21.7101 4.87726L21.9689 5.45459C22.0087 5.55413 22.0187 5.65367 22.0087 5.7333C22.0087 5.83284 22.0386 5.91247 22.1082 5.95228L22.2078 6.02196C22.3372 6.1215 22.4069 6.27081 22.387 6.44003L22.3173 6.90786L22.2974 7.10694C22.2775 7.20647 22.3272 7.33587 22.4168 7.40555C22.5661 7.50509 22.6358 7.63449 22.6458 7.7838V7.98288C22.6458 8.08242 22.6258 8.20186 22.5462 8.28149C22.4865 8.36113 22.4467 8.46066 22.4467 8.58011L22.4765 8.80905C22.4765 8.96831 22.5761 9.10767 22.6756 9.20721C22.815 9.30675 22.8946 9.46601 22.9145 9.62527C22.9543 9.87412 22.9643 10.0732 22.9643 10.2723V10.5012C22.9643 10.5808 22.9643 10.6605 22.9941 10.7401C23.014 10.8098 23.0638 10.8795 23.1235 10.9193L23.3226 11.0686C23.5217 11.198 23.6611 11.3672 23.7407 11.5961C23.8402 11.8151 23.8701 12.0441 23.8701 12.273V12.3526C23.8701 12.5318 23.8502 12.7209 23.7905 12.8901C23.7407 13.0693 23.7506 13.2385 23.8203 13.3878C23.8999 13.5272 23.9497 13.6865 23.9696 13.8557C24.0094 14.0548 23.9895 14.2538 23.9199 14.4131L23.8999 14.4828C23.8502 14.6022 23.7705 14.7117 23.671 14.8013C23.5715 14.9008 23.4719 14.9606 23.4122 15.0302C23.3525 15.09 23.3127 15.1895 23.3425 15.2791L23.3724 15.4184C23.4222 15.6175 23.4222 15.8166 23.3724 15.9958V16.0754C23.3326 16.2247 23.2728 16.3541 23.2131 16.4735C23.1434 16.6029 23.0439 16.7025 22.9145 16.7722L22.7652 16.8717C22.6955 16.9115 22.6458 17.0011 22.6458 17.0907C22.6458 17.1902 22.6059 17.2898 22.5462 17.3495L22.3969 17.5486C22.2974 17.678 22.168 17.7875 22.0286 17.8472C21.8893 17.9467 21.7698 18.0463 21.6802 18.1458C21.5807 18.2652 21.5011 18.4046 21.4612 18.544C21.4214 18.7231 21.2821 18.8227 21.1328 18.8227H20.5953C20.4559 18.8227 20.3265 18.9222 20.2668 19.0417C20.1971 19.2009 20.1274 19.3104 20.0378 19.4099C19.9383 19.5095 19.8786 19.6289 19.8388 19.7683C19.8188 19.8877 19.7193 19.9674 19.6198 19.9275C19.4904 19.8678 19.361 19.9275 19.3012 20.0271C19.1818 20.2262 19.0624 20.3755 18.933 20.5049L18.8633 20.5646C18.7339 20.6641 18.5647 20.7438 18.4153 20.7438C18.2362 20.7438 18.1466 20.8234 18.1167 20.9428C18.0869 21.0424 18.067 21.1718 18.057 21.2813C18.0371 21.4007 17.9973 21.5102 17.9575 21.6098L17.9077 21.6695C17.8082 21.8188 17.7285 21.9681 17.629 22.0975L17.5892 22.1572C17.4598 22.3264 17.2906 22.4558 17.0915 22.5056C16.8526 22.5852 16.6436 22.6051 16.4345 22.6051H16.2952C16.1956 22.6051 16.0961 22.6649 16.0264 22.7644L15.9667 22.8639L15.907 22.9834L15.7776 23.2024C15.678 23.3815 15.5287 23.501 15.3296 23.5607C15.1306 23.6105 14.9016 23.6304 14.6926 23.6204L14.5333 23.6005C14.394 23.6005 14.2646 23.5607 14.1352 23.501C14.0356 23.4612 13.8963 23.501 13.8366 23.6005C13.737 23.7399 13.6176 23.8195 13.4882 23.8593L13.1896 23.9589C12.9905 24.0086 12.7715 24.0086 12.5625 23.9589L12.4032 23.9091C12.3037 23.9091 12.2041 23.8593 12.1245 23.8096C12.025 23.7598 11.9254 23.7399 11.8259 23.7498L11.6965 23.7697C11.4974 23.7897 11.3182 23.7697 11.1391 23.72L10.8703 23.6603C10.7509 23.6204 10.6414 23.5408 10.5717 23.4313C10.5219 23.3318 10.4124 23.2521 10.2731 23.2322H9.95454C9.75546 23.2024 9.57629 23.1327 9.45685 22.9834L9.05869 22.6051L8.91934 22.4857L8.70035 22.3264L8.57095 22.2269C8.42164 22.1274 8.24247 22.0477 8.05335 22.0278L7.45611 21.9283C7.39639 21.9283 7.35658 21.9084 7.29685 21.8984L7.06791 21.8486C6.96837 21.8287 6.86884 21.7491 6.79916 21.6496C6.73943 21.55 6.62994 21.5102 6.5304 21.55C6.33133 21.6297 6.17206 21.6496 6.0128 21.6794H5.87345C5.61464 21.6993 5.37575 21.6595 5.13686 21.55C4.89796 21.4505 4.7387 21.3012 4.58939 21.1121C4.46995 20.9428 4.29078 20.8134 4.07179 20.7736L3.79308 20.7139C3.594 20.6741 3.39493 20.5945 3.21576 20.475C3.01668 20.3357 2.91714 20.2063 2.83751 20.047C2.75788 19.8977 2.70811 19.7285 2.69815 19.5493V19.4697C2.67825 19.2706 2.53889 19.0914 2.34977 19.0417C2.12083 18.972 1.95161 18.8724 1.8023 18.743C1.66295 18.6136 1.58332 18.4245 1.58332 18.2254L1.60323 17.7875C1.60323 17.6182 1.55346 17.4689 1.43401 17.3594C1.31456 17.24 1.23493 17.0907 1.23493 16.9314L1.20507 16.5731C1.18516 16.3143 1.13539 16.0555 1.07567 15.7967C1.01595 15.5677 1.10553 15.3388 1.29466 15.2293L1.36433 15.1795C1.46387 15.1099 1.50369 14.9805 1.44396 14.861L1.36433 14.7615C1.26479 14.6619 1.16526 14.5923 1.06572 14.5624C0.986085 14.5425 0.966177 14.4629 0.966177 14.4131L1.06572 14.2936C1.12544 14.224 1.11549 14.1145 1.06572 14.0548C0.986085 13.9751 0.94627 13.8756 0.936316 13.776L0.916408 13.0793C0.916408 12.9399 0.936316 12.8006 0.976131 12.6612C1.01595 12.5418 0.976131 12.4024 0.856685 12.3427V12.3526ZM10.711 11.0387C10.7807 10.969 10.7708 10.8396 10.711 10.7899C10.6115 10.7102 10.5418 10.6207 10.4821 10.5211L10.3826 10.3619C10.3129 10.2325 10.2233 10.123 10.1238 10.0234L10.1038 10.0035C10.0043 9.92389 9.93463 9.82435 9.87491 9.7049C9.82514 9.60536 9.82514 9.50582 9.87491 9.40628L9.93463 9.30675C9.99436 9.20721 10.0342 9.06785 10.0342 8.9484V8.90859C10.0342 8.80905 9.99436 8.70951 9.93463 8.60997C9.89482 8.53034 9.855 8.4308 9.83509 8.33126V8.27154C9.80523 8.15209 9.83509 8.02269 9.91473 7.92315C9.99436 7.79375 10.0541 7.67431 10.0839 7.525V7.50509C10.1238 7.40555 10.1038 7.27615 10.0441 7.17661C9.9844 7.07707 9.96449 6.97753 10.0043 6.85809L10.074 6.65901C10.1337 6.47984 10.2233 6.32058 10.3427 6.18122L10.4821 6.03192L10.5816 5.91247L10.6414 5.85275C10.7011 5.79302 10.711 5.69348 10.6613 5.61385C10.6115 5.51431 10.5816 5.41477 10.6015 5.31524L10.6215 5.17588C10.6513 4.9768 10.721 4.77772 10.8504 4.61846L10.8902 4.57865C11.0395 4.37957 11.2286 4.25017 11.4476 4.18049L11.7164 4.08095C11.8358 4.04114 11.9155 3.91174 11.9155 3.78234C11.9155 3.62307 11.9652 3.48372 12.0548 3.35432L12.1046 3.30455C12.2041 3.13533 12.3236 2.96612 12.4032 2.78695L12.4729 2.65755C12.4928 2.62768 12.5027 2.58787 12.5027 2.55801C12.5027 2.38879 12.4032 2.23948 12.2439 2.22953L11.806 2.19967C11.5571 2.17976 11.3083 2.19967 11.0694 2.19967L10.2233 2.29921C10.0939 2.29921 9.99436 2.39875 9.9844 2.5381C9.9844 2.67745 9.88486 2.7969 9.76542 2.83672L9.40708 2.93626L9.30754 2.96612L9.00892 3.06566C8.78994 3.13533 8.61077 3.2946 8.51123 3.51358L8.4316 3.64298C8.33206 3.86197 8.16284 4.04114 7.95381 4.17054C7.75473 4.29994 7.65519 4.50897 7.63528 4.74786V4.8474C7.61538 5.04648 7.55565 5.24556 7.43621 5.38491L7.38644 5.46454C7.30681 5.56408 7.2869 5.69348 7.33667 5.80298C7.38644 5.92242 7.4163 6.05182 7.40635 6.18122V6.70878C7.40635 6.84813 7.30681 6.96758 7.20727 7.0074C7.06791 7.05717 6.97833 7.16666 6.93851 7.30601L6.88874 7.50509C6.84893 7.70417 6.9186 7.90325 7.08782 8.02269C7.24708 8.14214 7.34662 8.32131 7.38644 8.5403V8.71947C7.4163 8.91854 7.52579 9.11762 7.70496 9.21716C7.88413 9.33661 8.02349 9.51578 8.10312 9.71485L8.15289 9.87412C8.23252 10.0931 8.41169 10.2225 8.61077 10.2424H8.67049C8.84966 10.2424 9.00892 10.3419 9.10846 10.5012C9.208 10.6605 9.36726 10.77 9.54643 10.7998L9.82514 10.8795C9.99436 10.9292 10.1536 11.0188 10.283 11.1482L10.3029 11.1681C10.4025 11.2478 10.5617 11.2378 10.6513 11.1283L10.721 11.0487L10.711 11.0387ZM11.8458 10.123C11.9453 10.1827 12.0449 10.1528 12.0847 10.0632L12.1145 10.0135C12.1842 9.87412 12.2738 9.73476 12.3733 9.61532L12.5724 9.3167C12.6023 9.3167 12.6122 9.29679 12.6222 9.27688L12.8611 8.95836C12.9606 8.85882 13.0801 8.78914 13.2194 8.78914C13.3488 8.78914 13.4583 8.71947 13.518 8.59007C13.5578 8.45071 13.6176 8.32131 13.737 8.21182L13.7868 8.15209C13.8863 8.05256 13.9859 8.00279 14.0854 7.95302C14.2148 7.93311 14.3343 7.9132 14.4537 7.9132H14.7523C14.8718 7.9132 14.9713 7.86343 15.031 7.76389C15.0907 7.66435 15.1803 7.59468 15.2799 7.54491L15.3794 7.50509C15.5387 7.43541 15.7178 7.38564 15.897 7.36574L16.0961 7.34583C16.2155 7.34583 16.3449 7.34583 16.4644 7.41551C16.5639 7.48518 16.6933 7.47523 16.7929 7.3956L16.8625 7.35578C17.0119 7.25624 17.1811 7.17661 17.3602 7.1567H17.3801C17.5792 7.11689 17.7584 7.11689 17.9575 7.12684H18.057C18.2561 7.1567 18.4253 7.22638 18.5547 7.37569L18.5846 7.41551C18.6841 7.51504 18.8434 7.59468 18.9827 7.59468H19.1519C19.2017 7.59468 19.2515 7.57477 19.2813 7.525C19.3112 7.49514 19.361 7.46528 19.4107 7.46528H19.5103C19.6496 7.46528 19.779 7.50509 19.9084 7.54491L20.0776 7.61458C20.2369 7.66435 20.4061 7.71412 20.5753 7.73403H20.6948C20.7744 7.73403 20.8242 7.68426 20.8242 7.61458C20.8242 7.51504 20.8043 7.41551 20.7545 7.33587L20.6848 7.17661C20.6052 7.04721 20.5455 6.90786 20.4858 6.77846L20.4659 6.72869C20.4161 6.62915 20.4161 6.52961 20.4659 6.43007V6.3803C20.4858 6.30067 20.4459 6.21109 20.3663 6.18122H20.2867C20.1274 6.13145 19.9881 6.04187 19.8885 5.91247L19.789 5.81293C19.6894 5.71339 19.6297 5.56408 19.5899 5.41477C19.5401 5.28537 19.4306 5.18583 19.2913 5.18583H18.8732C18.7239 5.16593 18.5945 5.0863 18.5049 4.96685L18.4651 4.91708C18.3954 4.81754 18.3357 4.69809 18.2959 4.57865C18.2461 4.47911 18.1366 4.41939 18.0371 4.44925L17.9177 4.48906C17.7186 4.55874 17.5195 4.5886 17.3204 4.56869L17.1612 4.54879C16.9919 4.54879 16.8327 4.47911 16.7033 4.37957L16.6037 4.30989C16.5241 4.25017 16.4445 4.21035 16.3549 4.17054C16.2554 4.13072 16.1757 4.15063 16.116 4.22031L16.0662 4.28003C15.9667 4.37957 15.8273 4.4592 15.688 4.47911L15.1505 4.50897C15.0509 4.50897 14.9514 4.55874 14.8817 4.62842C14.8021 4.69809 14.7125 4.74786 14.613 4.76777H14.5931C14.4935 4.76777 14.394 4.83745 14.2944 4.90713V4.92703C14.1949 5.02657 14.0655 5.07634 13.9361 5.07634L13.8963 5.09625C13.7768 5.09625 13.6574 5.09625 13.5379 5.12611H13.4185C13.2493 5.15597 13.1199 5.29533 13.0801 5.4745L13.0402 5.70344C13.0104 5.8627 12.9407 6.00205 12.8412 6.13145C12.7416 6.2509 12.6222 6.33053 12.4729 6.33053H12.3236H12.3037C12.2041 6.35044 12.1046 6.45993 12.1245 6.57938C12.1444 6.7486 12.1245 6.8979 12.0946 7.04721L12.0548 7.21643C12.015 7.36574 11.9155 7.48518 11.7861 7.53495L11.7263 7.56481H11.7064C11.6467 7.60463 11.6069 7.69422 11.6567 7.76389C11.7164 7.86343 11.7363 7.96297 11.7263 8.06251L11.6965 8.38103C11.6965 8.50048 11.6467 8.60997 11.5969 8.70951C11.5372 8.80905 11.5372 8.90859 11.577 9.00813L11.6766 9.22711C11.7263 9.32665 11.7363 9.42619 11.7064 9.54564C11.6766 9.64518 11.6567 9.74472 11.6666 9.84426C11.6666 9.94379 11.7263 10.0433 11.806 10.0831L11.8259 10.1031L11.8458 10.123ZM19.7094 17.3196C19.8089 17.4192 19.9582 17.459 20.0776 17.3794L20.2767 17.25C20.3763 17.1803 20.4559 17.0807 20.4957 16.9513V16.9314L20.5953 16.6328L20.655 16.5333L20.6948 16.4337L20.7346 16.3641C20.7744 16.2844 20.8341 16.2247 20.9337 16.1948L20.9735 16.1749C21.0531 16.155 21.1029 16.0754 21.1029 15.9958C21.1029 15.8962 21.1527 15.8166 21.2024 15.7469L21.2821 15.6772L21.4811 15.4184V15.3985C21.5409 15.3189 21.5807 15.2293 21.6006 15.1298C21.6205 15.0302 21.6006 14.9307 21.5608 14.8312L21.5409 14.7913C21.5011 14.6918 21.4811 14.6221 21.4712 14.5325L21.4413 14.2538L21.4115 13.9552C21.4115 13.8557 21.4513 13.7561 21.511 13.6566C21.5807 13.577 21.6305 13.4774 21.6703 13.3779V13.3381L21.6902 13.3182C21.7101 13.2186 21.6603 13.1191 21.5707 13.1191C21.4712 13.0693 21.3717 12.9897 21.3418 12.8702L21.3119 12.8105C21.2622 12.6313 21.2323 12.4522 21.2323 12.273L21.2522 11.7753V11.7454C21.2522 11.5762 21.1129 11.4468 20.9536 11.4468H20.9337C20.7346 11.4468 20.5753 11.3871 20.436 11.2478L20.3564 11.1482L20.1573 10.9193L19.8985 10.6207C19.7989 10.4813 19.6994 10.3619 19.57 10.2424C19.4705 10.1429 19.3212 10.0433 19.1718 10.0234L18.9728 9.99356C18.8732 9.97366 18.7438 9.92389 18.6343 9.85421C18.5547 9.79449 18.4353 9.81439 18.3556 9.89402L18.2262 10.0334L18.1665 10.0732C18.0968 10.0931 18.0271 10.0533 17.9973 9.97366C17.9575 9.85421 17.9575 9.71486 18.0172 9.59541V9.53568C18.0172 9.46601 17.9575 9.41624 17.8977 9.43615H17.7385C17.5593 9.43615 17.3801 9.41624 17.2109 9.33661L17.1114 9.29679C17.0119 9.24702 16.8924 9.21716 16.7829 9.21716C16.6834 9.21716 16.5838 9.23707 16.4843 9.29679L16.4445 9.32665C16.325 9.40628 16.1857 9.4461 16.0463 9.45605H15.7178C15.5685 9.45605 15.4192 9.50582 15.3197 9.58545C15.1903 9.66509 15.0509 9.71485 14.9016 9.74472L14.6329 9.78453C14.5134 9.81439 14.384 9.86416 14.2745 9.95375C14.175 10.0533 14.0356 10.113 13.9062 10.1528L13.8565 10.1727C13.6972 10.2225 13.5578 10.322 13.4583 10.4714L13.3389 10.5908C13.2692 10.6903 13.2692 10.8098 13.3389 10.9093C13.3986 11.0089 13.518 11.0387 13.6375 11.0089L13.7868 10.9491C13.8664 10.9193 13.956 10.9491 14.0257 10.989C14.0854 11.0387 14.175 11.0686 14.2646 11.0586L14.5134 11.0288C14.6528 11.0288 14.7921 11.0288 14.9315 11.0686C15.0808 11.1184 15.2102 11.1681 15.3296 11.2677C15.4491 11.3672 15.5785 11.407 15.7278 11.4269C15.8771 11.4468 16.0264 11.4767 16.1658 11.5265L16.2653 11.5464C16.3648 11.5762 16.4445 11.6459 16.5042 11.7454C16.554 11.8251 16.6037 11.9445 16.6037 12.0441V12.0739C16.6037 12.1934 16.7033 12.273 16.8028 12.273H16.8625C17.0218 12.273 17.191 12.2929 17.3602 12.3427L17.4299 12.3725C17.5295 12.4124 17.629 12.4721 17.6987 12.5716C17.7783 12.6712 17.8281 12.7707 17.8579 12.8702L17.8878 13.0096C17.9177 13.1589 17.9276 13.3082 17.9276 13.4675V13.5172C17.9276 13.6168 17.9973 13.7163 18.1068 13.7561C18.2063 13.776 18.3258 13.8159 18.4353 13.8756L18.485 13.8955C18.6144 13.9751 18.7438 14.0747 18.8434 14.1941L18.8931 14.2638C19.0225 14.4131 19.0922 14.6022 19.0922 14.7913V14.861C19.0922 15.0103 19.0624 15.1596 19.0126 15.299C18.9728 15.4184 19.0126 15.5578 19.142 15.5976L19.2117 15.6474C19.361 15.7071 19.4904 15.8166 19.5899 15.946C19.6894 16.0953 19.7293 16.2645 19.7293 16.4437V16.7423C19.7094 16.8418 19.6795 16.9215 19.6297 16.9911C19.58 17.0608 19.58 17.1604 19.6297 17.23L19.6894 17.3296L19.7094 17.3196ZM13.3389 12.2232H13.319C13.2791 12.2232 13.2592 12.273 13.2692 12.3228L13.309 12.5219C13.3488 12.6811 13.3687 12.8404 13.3886 12.9996C13.4085 13.1589 13.4882 13.2983 13.6076 13.3978H13.6474C13.7967 13.5172 13.8863 13.6964 13.8963 13.8756V14.3733C13.8764 14.4728 13.8963 14.5724 13.956 14.652L14.0058 14.7018C14.1053 14.8212 14.1451 14.9606 14.1551 15.0999L14.1849 15.6474C14.1849 15.7768 14.1053 15.8863 13.9859 15.9062L13.8863 15.9261C13.8167 15.9261 13.7868 16.0057 13.7868 16.0754C13.7868 16.155 13.8167 16.2446 13.8465 16.3242V16.3441C13.8764 16.4437 13.8863 16.5432 13.8764 16.6428L13.8366 16.9115C13.7967 17.1106 13.737 17.2898 13.6375 17.4689L13.5678 17.5884C13.518 17.6879 13.4484 17.7476 13.3687 17.7875C13.2692 17.8273 13.1995 17.9069 13.1696 18.0064L13.09 18.3648C13.0402 18.5639 12.9507 18.7629 12.8312 18.962H12.8113C12.6919 19.1213 12.5426 19.2606 12.3634 19.3602L12.2439 19.4398L11.9453 19.5891C11.8458 19.6289 11.7861 19.7185 11.7661 19.828L11.7164 20.1565C11.6865 20.3556 11.6168 20.5248 11.4775 20.6542L11.3481 20.8035L11.1988 20.9528L11.0495 21.1121C10.93 21.2514 10.7509 21.3111 10.5518 21.2813L10.1934 21.2116L9.86496 21.1718H9.77537C9.73556 21.2116 9.7256 21.2713 9.75546 21.331C9.82514 21.4505 9.93463 21.5301 10.0541 21.5301L10.2731 21.5699C10.3726 21.5699 10.4921 21.6197 10.5916 21.6695C10.6911 21.7392 10.7907 21.7889 10.9101 21.8188H10.93C11.0594 21.8686 11.1988 21.8785 11.3282 21.8686L11.4775 21.8486C11.6467 21.8287 11.806 21.8486 11.9453 21.9084L12.0648 21.9482C12.1145 21.9681 12.1942 21.9482 12.2439 21.8984C12.3037 21.8387 12.3634 21.7989 12.443 21.769L12.5226 21.7491C12.652 21.7093 12.7814 21.6894 12.9208 21.6894H13.0004C13.1199 21.6894 13.2294 21.7093 13.3289 21.769L13.3687 21.7889C13.4384 21.8188 13.518 21.7889 13.5678 21.7292C13.5977 21.6595 13.6673 21.5898 13.737 21.5301L13.9859 21.3609L14.1451 21.2614L14.2248 21.2116C14.3243 21.1419 14.4637 21.1121 14.5831 21.1121L14.9414 21.0822C15.0808 21.0623 15.2002 20.9628 15.2401 20.8234C15.2799 20.6741 15.3396 20.5248 15.4391 20.3954C15.5387 20.266 15.6382 20.1565 15.7378 20.0569C15.8672 19.9574 15.9966 19.9076 16.1359 19.8977H16.2155C16.3748 19.8678 16.4942 19.7185 16.4843 19.5593V19.5393V18.8923C16.5042 18.7928 16.544 18.6634 16.6037 18.5639L16.8028 18.2652L16.8825 18.1657C16.9422 18.1159 16.982 18.0463 17.0517 17.9666L17.1512 17.8372C17.2109 17.7377 17.2109 17.6083 17.1313 17.5187C17.0318 17.4192 16.982 17.2798 16.9621 17.1405V17.1006C16.9422 16.9414 16.9422 16.7722 16.9919 16.6029V16.5532C17.0417 16.4238 17.1114 16.2944 17.191 16.1749C17.2707 16.0754 17.2607 15.936 17.1612 15.8564L16.9919 15.7071C16.8526 15.5876 16.773 15.4085 16.753 15.2293L16.7331 15.0302C16.7331 14.9705 16.7331 14.9008 16.7132 14.8312L16.6933 14.6818C16.6734 14.5126 16.5739 14.3832 16.4345 14.2837L16.3648 14.2638C16.2653 14.2041 16.1658 14.1145 16.0861 13.995C16.0065 13.8955 15.9667 13.7561 15.9368 13.6168L15.907 13.4476C15.907 13.3878 15.8672 13.348 15.8074 13.3182L15.6482 13.2684L15.3296 13.1689C15.2301 13.1489 15.1306 13.0693 15.0609 12.9996H15.041C14.9813 12.92 14.8817 12.92 14.822 12.9797L14.7225 13.0793C14.7025 13.1091 14.6826 13.1191 14.6528 13.1091C14.5931 13.1091 14.5532 13.0594 14.5731 13.0096C14.5931 12.8503 14.5333 12.6911 14.4039 12.5915L14.2745 12.492L13.9759 12.2929C13.8963 12.2631 13.7768 12.2929 13.737 12.3925L13.6972 12.4522C13.6972 12.4721 13.6673 12.482 13.6574 12.492C13.6176 12.492 13.5579 12.492 13.5579 12.4422L13.528 12.3925C13.4981 12.3327 13.4284 12.2929 13.3687 12.273L13.3389 12.2232ZM12.1444 13.2186L12.0946 13.1689C12.0449 13.129 11.9951 13.139 11.9453 13.1888C11.8756 13.3082 11.8159 13.4376 11.7861 13.567V13.5869C11.7562 13.7163 11.6367 13.8059 11.5173 13.786H11.4178H11.3979C11.2585 13.786 11.149 13.9054 11.149 14.0448C11.149 14.224 11.0893 14.4031 10.9798 14.5425L10.9201 14.6022C10.8205 14.7316 10.6712 14.8212 10.5219 14.871L10.4423 14.8909C10.3427 14.9207 10.2631 14.9904 10.2432 15.1099C10.2432 15.2094 10.1835 15.3089 10.1038 15.3886L10.0043 15.4682C9.88486 15.5976 9.70569 15.6673 9.52652 15.6872L9.02883 15.737C8.86957 15.737 8.73021 15.8365 8.63067 15.9858C8.53113 16.1351 8.38183 16.2347 8.23252 16.2546L8.01353 16.2745C7.85427 16.2944 7.68505 16.2944 7.51584 16.2546L7.4163 16.2347L7.14754 16.165C7.04801 16.1351 6.96837 16.165 6.90865 16.2347L6.80911 16.3641C6.67971 16.5134 6.49059 16.583 6.31142 16.5631L5.66441 16.4835C5.56488 16.4835 5.48524 16.4337 5.39566 16.384C5.29612 16.3242 5.22644 16.2546 5.15677 16.1849L4.90792 15.8863C4.87806 15.8664 4.82829 15.8564 4.77852 15.8664L4.63916 15.9261L4.08175 16.0654C3.98221 16.0953 3.85281 16.0654 3.75327 16.0057C3.65373 15.9261 3.53428 15.9062 3.41483 15.9062H3.28543C3.16599 15.936 3.08636 16.0654 3.12617 16.1849L3.16599 16.384C3.19585 16.4835 3.1859 16.6029 3.13613 16.7025C3.08636 16.802 3.09631 16.9016 3.16599 17.0011L3.22571 17.0807C3.30534 17.2002 3.42479 17.2997 3.52433 17.3993C3.62387 17.4988 3.72341 17.5983 3.80304 17.7277L3.95234 17.9965C4.03198 18.1358 4.15142 18.2155 4.31068 18.2155C4.45999 18.2155 4.6093 18.2652 4.72875 18.3648L5.02736 18.6435C5.107 18.7132 5.22644 18.7231 5.30607 18.6634L5.35584 18.6435C5.41557 18.6435 5.45538 18.6833 5.45538 18.743V18.7928C5.45538 18.9222 5.55492 19.0416 5.68432 19.0914L6.13225 19.191C6.29151 19.2407 6.45077 19.2905 6.60008 19.39H6.67971C6.75934 19.39 6.82902 19.3204 6.81907 19.2308V18.8824C6.81907 18.7828 6.85888 18.6833 6.93851 18.6435L6.98828 18.6236C7.03805 18.6435 7.08782 18.6833 7.06791 18.7231V18.8923C7.06791 19.0217 7.10773 19.1412 7.19731 19.2308C7.29685 19.3303 7.42625 19.3502 7.53575 19.3104C7.65519 19.2606 7.77464 19.2507 7.90404 19.2606L8.27233 19.2805C8.4515 19.3005 8.62072 19.2805 8.77003 19.2109C8.9492 19.1511 9.09851 19.0715 9.23786 18.962L9.29758 18.9222L9.5962 18.6534C9.69574 18.5539 9.82514 18.5041 9.94459 18.5041H10.3427C10.5418 18.4842 10.721 18.3051 10.7409 18.106L10.7807 17.9069C10.7807 17.7775 10.8404 17.6581 10.93 17.5585C11.0296 17.459 11.1291 17.3993 11.2286 17.3594L11.3481 17.3097C11.5173 17.24 11.6467 17.0907 11.7064 16.9115L11.7661 16.6726C11.8159 16.4735 11.9155 16.2745 12.0648 16.1451L12.0847 16.1252C12.2041 16.0256 12.224 15.8265 12.1444 15.6872L12.1145 15.6175C12.0449 15.518 12.0349 15.3687 12.0847 15.2393C12.1344 15.0999 12.1842 14.9805 12.2638 14.861L12.3634 14.7217C12.4032 14.642 12.4032 14.5226 12.3435 14.4529C12.2838 14.3733 12.2439 14.2737 12.2439 14.1742L12.224 14.0348V13.6964C12.2439 13.5969 12.224 13.4675 12.1942 13.3679L12.1544 13.2485L12.1444 13.2186ZM10.721 12.4621V12.4323C10.721 12.3327 10.6613 12.273 10.5816 12.273H10.3228C10.2233 12.2929 10.1238 12.2929 10.0441 12.273H9.5962C9.36726 12.273 9.14828 12.2332 8.92929 12.1735L8.6904 12.1137L8.49132 12.054L8.04339 11.9047C7.8045 11.835 7.62533 11.6758 7.51584 11.4568L7.46607 11.3572C7.39639 11.2079 7.24708 11.1283 7.09777 11.1582C6.92856 11.1582 6.75934 11.1582 6.60008 11.0785L6.48063 11.0288C6.25169 10.9292 6.08248 10.7302 6.08248 10.4614L6.04266 10.1926C6.0128 10.0533 5.92322 9.92389 5.80377 9.87412C5.66441 9.81439 5.53501 9.73476 5.40561 9.64518L5.35584 9.61532C5.20654 9.49587 5.07713 9.33661 5.00746 9.14748L4.98755 9.08776C4.93778 8.9285 4.92783 8.75928 4.96764 8.59007L4.98755 8.53034C5.02737 8.40094 5.03732 8.27154 5.03732 8.13219C5.03732 8.01274 4.98755 7.89329 4.89796 7.80371L4.75861 7.67431C4.59935 7.54491 4.49981 7.35578 4.48985 7.14675C4.46995 6.92777 4.46995 6.71873 4.50976 6.5097V6.47984V6.44998C4.50976 6.33053 4.41022 6.2509 4.31068 6.2509H4.28082C4.15142 6.2509 4.04193 6.33053 3.98221 6.44998C3.93244 6.58933 3.85281 6.69883 3.76322 6.80832L3.72341 6.85809L3.52433 7.05717L3.42479 7.1567C3.32525 7.25624 3.26553 7.40555 3.24562 7.55486C3.22571 7.70417 3.1859 7.85348 3.12617 7.99283L3.10626 8.0426C3.05649 8.16205 2.97686 8.27154 2.87732 8.34122C2.77779 8.42085 2.70811 8.5403 2.70811 8.65974L2.6882 9.11762C2.6882 9.3167 2.65834 9.51578 2.58866 9.71485L2.56875 9.79449C2.51898 9.92389 2.56875 10.0632 2.6882 10.123L3.10626 10.3021L3.14608 10.322C3.17594 10.322 3.1859 10.3419 3.19585 10.3718C3.22571 10.4116 3.19585 10.4714 3.16599 10.4714L3.06645 10.5211C3.00673 10.541 2.96691 10.6008 2.947 10.6704L2.92709 10.77V10.7899L2.82756 11.3473C2.80765 11.4269 2.80765 11.5165 2.80765 11.6061C2.80765 11.6857 2.85742 11.7554 2.92709 11.7853L3.14608 11.8848C3.24562 11.9445 3.36507 12.0142 3.4447 12.0839L3.54424 12.1635C3.5741 12.2033 3.62387 12.2431 3.66368 12.2631L3.7035 12.3029C3.77317 12.3626 3.82294 12.4422 3.84285 12.5318L3.94239 12.9797C3.94239 13.0992 4.04193 13.1987 4.14147 13.2286L4.30073 13.2783C4.30073 13.2783 4.33059 13.2783 4.3505 13.2983L4.54958 13.358C4.70884 13.4077 4.84819 13.4973 4.96764 13.6168C5.08709 13.7163 5.20654 13.8457 5.30607 13.9851L5.34589 14.0249C5.42552 14.1244 5.54497 14.1742 5.66441 14.1443C5.78386 14.1145 5.91326 14.1045 6.04266 14.1045H6.19197C6.29151 14.1045 6.42091 14.1344 6.5304 14.2041C6.62994 14.2638 6.75934 14.3036 6.87879 14.3534H6.90865C7.0281 14.4031 7.1575 14.3832 7.25704 14.3136C7.35658 14.2339 7.48598 14.1941 7.61538 14.1941L8.08321 14.224C8.18275 14.224 8.28229 14.2041 8.33206 14.1244H8.35196L8.52118 13.9652L8.57095 13.9154C8.65058 13.8159 8.77003 13.776 8.88947 13.7661H9.3374C9.45685 13.7661 9.56634 13.6665 9.61611 13.567C9.66588 13.4675 9.76542 13.3878 9.88486 13.3679L10.0839 13.3281C10.1636 13.3281 10.2333 13.2584 10.2631 13.1689C10.293 13.0693 10.3427 12.9897 10.4124 12.93L10.5717 12.7707C10.6712 12.6712 10.721 12.5716 10.7409 12.4522L10.721 12.4621Z" fill="#CA0202" stroke="#CA0202"/>
</svg>
