<svg width="42" height="42" viewBox="0 0 42 42" fill="none" xmlns="http://www.w3.org/2000/svg">
<path d="M1.3213 20.3672L1.18857 20.3008C0.889925 20.1349 0.657648 19.8861 0.491736 19.5708C0.259459 19.1395 0.159912 18.7413 0.159912 18.3265L0.193095 18.1108C0.193095 17.779 0.276051 17.4803 0.425371 17.1983L0.558101 16.9494C0.624466 16.8167 0.724013 16.7005 0.806969 16.5844C0.906517 16.4683 0.923108 16.3189 0.889925 16.1862L0.806969 15.9208C0.707422 15.5889 0.641057 15.2571 0.641057 14.9253L0.591284 14.7262C0.591284 14.3612 0.690831 13.9962 0.923108 13.7307L1.08902 13.515C1.20516 13.3491 1.38766 13.2496 1.58676 13.1832C1.75267 13.1334 1.86881 12.9675 1.8854 12.7684L1.91858 12.2043C1.91858 11.7564 2.13427 11.3416 2.46609 11.0429L2.86428 10.7443C2.94724 10.6613 3.03019 10.5784 3.09656 10.4457C3.17951 10.3461 3.1961 10.2134 3.17951 10.1138C3.14633 9.94792 3.17951 9.89815 3.26247 9.88155C3.52793 9.9811 3.69384 9.94792 3.80998 9.81519L4.02566 9.53314L4.62295 8.86949C4.78886 8.70358 4.85522 8.40494 4.75568 8.17266L4.55658 7.74129C4.5234 7.64174 4.55658 7.5256 4.63954 7.49242C4.85523 7.49242 5.00455 7.57538 5.07091 7.70811L5.13728 7.82424C5.23682 8.02334 5.4691 8.12289 5.63501 8.03993C6.00002 7.9072 6.29866 7.87402 6.58071 7.87402H7.11163C7.47664 7.87402 7.77528 7.62515 7.84164 7.24355C7.90801 6.779 8.07392 6.41399 8.3062 6.16512C8.55506 5.88307 8.83712 5.66739 9.16894 5.50148C9.60031 5.2692 9.86577 4.93737 9.94873 4.506C10.0649 3.97508 10.3469 3.59349 10.7285 3.34462L11.9894 2.6312L12.3545 2.41551C12.5701 2.28278 12.7692 2.11687 12.9351 1.91777L13.267 1.51958C13.4329 1.35367 13.5988 1.23753 13.7979 1.18776C13.9638 1.13799 14.1961 1.1048 14.3952 1.1214L15.0588 1.17117C15.3906 1.17117 15.6561 1.25413 15.9216 1.37026L16.0875 1.45322C16.2534 1.51958 16.4193 1.4864 16.5023 1.37026L16.6516 1.28731L17.365 0.540703C17.5309 0.374791 17.73 0.308426 17.9457 0.341609C18.1614 0.374791 18.3771 0.457747 18.5762 0.557294C18.8748 0.723206 19.1237 0.789571 19.4057 0.789571H19.5716C19.9366 0.789571 20.3016 0.839345 20.6666 0.922301L20.9155 0.988666C21.1644 1.05503 21.4133 0.955483 21.5792 0.756389C21.6289 0.673433 21.7451 0.656842 21.8114 0.723206C21.8612 0.756389 21.8778 0.789571 21.8944 0.839345C21.9276 1.17117 22.1267 1.42004 22.3921 1.50299L22.6576 1.58595C22.9396 1.66891 23.1885 1.85141 23.3544 2.08369C23.5203 2.33255 23.7194 2.58142 23.9517 2.74733L24.1176 2.91325C24.2835 3.07916 24.5158 3.14552 24.7481 3.12893H25.727C26.1252 3.12893 26.5068 3.1953 26.8884 3.36121C27.2534 3.52712 27.635 3.5603 27.9834 3.42757C28.3484 3.31144 28.73 3.26166 29.1116 3.31144L29.825 3.42757C30.1568 3.46076 30.4886 3.62667 30.6877 3.87554L30.7707 3.95849C30.9366 4.1244 31.1025 4.34009 31.2684 4.57237C31.368 4.78805 31.6003 4.90419 31.8325 4.90419H32.8612C33.1101 4.90419 33.3589 4.95397 33.558 5.0701C33.7737 5.23602 33.9562 5.40193 34.1221 5.56784L34.288 5.78353C34.4871 6.0158 34.5867 6.33104 34.5701 6.66286C34.5701 6.92832 34.7692 7.1606 35.0346 7.1606L35.3665 7.19378C35.5987 7.19378 35.7978 7.35969 35.914 7.57538L36.0799 7.9072L36.5113 8.86949C36.5776 9.0354 36.5942 9.20132 36.5776 9.33404C36.5776 9.49996 36.6274 9.63269 36.7435 9.69905L36.9094 9.81519C37.1251 9.9811 37.2413 10.23 37.2081 10.512L37.0919 11.2918L37.0588 11.6236C37.0256 11.7895 37.1085 12.0052 37.2579 12.1214C37.5067 12.2873 37.6229 12.503 37.6395 12.7518V13.0837C37.6395 13.2496 37.6063 13.4487 37.4735 13.5814C37.374 13.7141 37.3076 13.88 37.3076 14.0791L37.3574 14.4607C37.3574 14.7262 37.5233 14.9585 37.6892 15.1244C37.9215 15.2903 38.0542 15.5557 38.0874 15.8212C38.1538 16.236 38.1704 16.5678 38.1704 16.8996V17.2812C38.1704 17.414 38.1704 17.5467 38.2202 17.6794C38.2533 17.7956 38.3363 17.9117 38.4358 17.9781L38.7677 18.2269C39.0995 18.4426 39.3318 18.7247 39.4645 19.1063C39.6304 19.4713 39.6802 19.8529 39.6802 20.2345V20.3672C39.6802 20.6658 39.647 20.9811 39.5474 21.2631C39.4645 21.5618 39.4811 21.8438 39.5972 22.0927C39.73 22.325 39.8129 22.5904 39.8461 22.8725C39.9125 23.2043 39.8793 23.5361 39.7631 23.8016L39.73 23.9177C39.647 24.1168 39.5143 24.2993 39.3484 24.4486C39.1824 24.6145 39.0165 24.7141 38.917 24.8302C38.8174 24.9298 38.7511 25.0957 38.8008 25.245L38.8506 25.4773C38.9336 25.8091 38.9336 26.1409 38.8506 26.4396V26.5723C38.7843 26.8212 38.6847 27.0369 38.5852 27.236C38.469 27.4516 38.3031 27.6176 38.0874 27.7337L37.8386 27.8996C37.7224 27.966 37.6395 28.1153 37.6395 28.2646C37.6395 28.4305 37.5731 28.5964 37.4735 28.696L37.2247 29.0278C37.0588 29.2435 36.8431 29.426 36.6108 29.5255C36.3785 29.6915 36.1794 29.8574 36.0301 30.0233C35.8642 30.2224 35.7315 30.4547 35.6651 30.6869C35.5987 30.9856 35.3665 31.1515 35.1176 31.1515H34.2217C33.9894 31.1515 33.7737 31.3174 33.6742 31.5165C33.558 31.782 33.4419 31.9645 33.2926 32.1304C33.1267 32.2963 33.0271 32.4954 32.9607 32.7277C32.9276 32.9267 32.7616 33.0595 32.5957 32.9931C32.38 32.8936 32.1644 32.9931 32.0648 33.159C31.8657 33.4908 31.6666 33.7397 31.4509 33.9554L31.3348 34.0549C31.1191 34.2209 30.8371 34.3536 30.5882 34.3536C30.2896 34.3536 30.1402 34.4863 30.0905 34.6854C30.0407 34.8513 30.0075 35.067 29.9909 35.2495C29.9577 35.4486 29.8914 35.6311 29.825 35.797L29.742 35.8966C29.5761 36.1454 29.4434 36.3943 29.2775 36.61L29.2111 36.7095C28.9954 36.9916 28.7134 37.2073 28.3816 37.2902C27.9834 37.423 27.635 37.4561 27.2865 37.4561H27.0543C26.8884 37.4561 26.7224 37.5557 26.6063 37.7216L26.5068 37.8875L26.4072 38.0866L26.1915 38.4516C26.0256 38.7503 25.7767 38.9494 25.4449 39.0489C25.1131 39.1319 24.7315 39.165 24.3831 39.1485L24.1176 39.1153C23.8853 39.1153 23.6697 39.0489 23.454 38.9494C23.2881 38.883 23.0558 38.9494 22.9562 39.1153C22.7903 39.3475 22.5912 39.4803 22.3755 39.5466L21.8778 39.7126C21.546 39.7955 21.181 39.7955 20.8326 39.7126L20.5671 39.6296C20.4012 39.6296 20.2353 39.5466 20.1025 39.4637C19.9366 39.3807 19.7707 39.3475 19.6048 39.3641L19.3891 39.3973C19.0573 39.4305 18.7587 39.3973 18.46 39.3144L18.0121 39.2148C17.813 39.1484 17.6305 39.0157 17.5143 38.8332C17.4314 38.6673 17.2489 38.5346 17.0166 38.5014H16.4857C16.1538 38.4516 15.8552 38.3355 15.6561 38.0866L14.9925 37.4561L14.7602 37.2571L14.3952 36.9916L14.1795 36.8257C13.9306 36.6598 13.632 36.527 13.3167 36.4939L12.3213 36.3279C12.2217 36.3279 12.1554 36.2948 12.0558 36.2782L11.6742 36.1952C11.5083 36.162 11.3424 36.0293 11.2263 35.8634C11.1267 35.6975 10.9442 35.6311 10.7783 35.6975C10.4465 35.8302 10.181 35.8634 9.91554 35.9132H9.68327C9.2519 35.9463 8.85371 35.88 8.45552 35.6975C8.05733 35.5316 7.79187 35.2827 7.543 34.9675C7.34391 34.6854 7.04527 34.4697 6.68026 34.4034L6.2157 34.3038C5.88388 34.2375 5.55206 34.1047 5.25341 33.9056C4.92159 33.6734 4.75568 33.4577 4.62295 33.1922C4.49022 32.9433 4.40726 32.6613 4.39067 32.3626V32.2299C4.35749 31.8981 4.12521 31.5994 3.80998 31.5165C3.42838 31.4004 3.14633 31.2344 2.89746 31.0188C2.66519 30.8031 2.53246 30.4878 2.53246 30.156L2.56564 29.426C2.56564 29.1439 2.48268 28.8951 2.28359 28.7126C2.08449 28.5135 1.95176 28.2646 1.95176 27.9992L1.90199 27.4019C1.86881 26.9705 1.78585 26.5391 1.6863 26.1078C1.58676 25.7262 1.73608 25.3446 2.05131 25.1621L2.16745 25.0791C2.33336 24.963 2.39973 24.7473 2.30018 24.5482L2.16745 24.3823C2.00154 24.2164 1.83562 24.1002 1.66971 24.0504C1.53698 24.0173 1.5038 23.8845 1.5038 23.8016L1.66971 23.6025C1.76926 23.4863 1.75267 23.3038 1.66971 23.2043C1.53698 23.0716 1.47062 22.9057 1.45403 22.7397L1.42084 21.5784C1.42084 21.3461 1.45403 21.1138 1.52039 20.8815C1.58676 20.6824 1.52039 20.4502 1.3213 20.3506V20.3672ZM17.7466 18.1772C17.8627 18.061 17.8461 17.8453 17.7466 17.7624C17.5807 17.6296 17.4645 17.4803 17.365 17.3144L17.1991 17.049C17.0829 16.8333 16.9336 16.6508 16.7677 16.4849L16.7345 16.4517C16.5686 16.3189 16.4525 16.153 16.3529 15.9539C16.27 15.788 16.27 15.6221 16.3529 15.4562L16.4525 15.2903C16.552 15.1244 16.6184 14.8921 16.6184 14.693V14.6266C16.6184 14.4607 16.552 14.2948 16.4525 14.1289C16.3861 13.9962 16.3198 13.8303 16.2866 13.6644V13.5648C16.2368 13.3657 16.2866 13.15 16.4193 12.9841C16.552 12.7684 16.6516 12.5693 16.7013 12.3205V12.2873C16.7677 12.1214 16.7345 11.9057 16.635 11.7398C16.5354 11.5739 16.5023 11.4079 16.5686 11.2089L16.6848 10.877C16.7843 10.5784 16.9336 10.3129 17.1327 10.0806L17.365 9.83178L17.5309 9.63269L17.6305 9.53314C17.73 9.43359 17.7466 9.26768 17.6636 9.13495C17.5807 8.96904 17.5309 8.80313 17.5641 8.63721L17.5973 8.40494C17.647 8.07311 17.7632 7.74129 17.9789 7.47583L18.0452 7.40946C18.2941 7.07764 18.6093 6.86195 18.9743 6.74582L19.4223 6.5799C19.6214 6.51354 19.7541 6.29785 19.7541 6.08217C19.7541 5.81671 19.8371 5.58443 19.9864 5.36875L20.0694 5.28579C20.2353 5.00374 20.4344 4.72169 20.5671 4.42305L20.6832 4.20736C20.7164 4.15759 20.733 4.09122 20.733 4.04145C20.733 3.7594 20.5671 3.51053 20.3016 3.49394L19.5716 3.44416C19.1568 3.41098 18.7421 3.44416 18.3439 3.44416L16.9336 3.61008C16.7179 3.61008 16.552 3.77599 16.5354 4.00827C16.5354 4.24054 16.3695 4.43964 16.1704 4.506L15.5731 4.67191L15.4072 4.72169L14.9095 4.8876C14.5445 5.00374 14.2458 5.2692 14.0799 5.6342L13.9472 5.84989C13.7813 6.2149 13.4992 6.51354 13.1508 6.72922C12.819 6.94491 12.6531 7.29333 12.6199 7.69151V7.85743C12.5867 8.18925 12.4872 8.52107 12.2881 8.75335L12.2051 8.88608C12.0724 9.05199 12.0392 9.26768 12.1222 9.45018C12.2051 9.64928 12.2549 9.86496 12.2383 10.0806V10.96C12.2383 11.1923 12.0724 11.3914 11.9065 11.4577C11.6742 11.5407 11.5249 11.7232 11.4585 11.9555L11.3756 12.2873C11.3092 12.6191 11.4253 12.9509 11.7074 13.15C11.9729 13.3491 12.1388 13.6478 12.2051 14.0128V14.3114C12.2549 14.6432 12.4374 14.9751 12.7361 15.141C13.0347 15.3401 13.267 15.6387 13.3997 15.9705L13.4827 16.236C13.6154 16.601 13.914 16.8167 14.2459 16.8499H14.3454C14.644 16.8499 14.9095 17.0158 15.0754 17.2812C15.2413 17.5467 15.5068 17.7292 15.8054 17.779L16.27 17.9117C16.552 17.9947 16.8175 18.144 17.0332 18.3597L17.0664 18.3928C17.2323 18.5256 17.4977 18.509 17.647 18.3265L17.7632 18.1938L17.7466 18.1772ZM19.638 16.6508C19.8039 16.7503 19.9698 16.7005 20.0362 16.5512L20.086 16.4683C20.2021 16.236 20.3514 16.0037 20.5173 15.8046L20.8492 15.3069C20.8989 15.3069 20.9155 15.2737 20.9321 15.2405L21.3303 14.7096C21.4962 14.5437 21.6953 14.4275 21.9276 14.4275C22.1433 14.4275 22.3258 14.3114 22.4253 14.0957C22.4917 13.8634 22.5912 13.6478 22.7903 13.4653L22.8733 13.3657C23.0392 13.1998 23.2051 13.1168 23.371 13.0339C23.5867 13.0007 23.7858 12.9675 23.9849 12.9675H24.4826C24.6817 12.9675 24.8476 12.8846 24.9472 12.7187C25.0467 12.5527 25.196 12.4366 25.362 12.3536L25.5279 12.2873C25.7933 12.1711 26.092 12.0882 26.3906 12.055L26.7224 12.0218C26.9215 12.0218 27.1372 12.0218 27.3363 12.138C27.5022 12.2541 27.7179 12.2375 27.8838 12.1048L28 12.0384C28.2488 11.8725 28.5309 11.7398 28.8295 11.7066H28.8627C29.1945 11.6402 29.4932 11.6402 29.825 11.6568H29.9909C30.3227 11.7066 30.6048 11.8227 30.8205 12.0716L30.8702 12.138C31.0362 12.3039 31.3016 12.4366 31.5339 12.4366H31.8159C31.8989 12.4366 31.9819 12.4034 32.0316 12.3205C32.0814 12.2707 32.1644 12.2209 32.2473 12.2209H32.4132C32.6455 12.2209 32.8612 12.2873 33.0769 12.3536L33.3589 12.4698C33.6244 12.5527 33.9064 12.6357 34.1885 12.6689H34.3876C34.5203 12.6689 34.6033 12.5859 34.6033 12.4698C34.6033 12.3039 34.5701 12.138 34.4871 12.0052L34.371 11.7398C34.2383 11.5241 34.1387 11.2918 34.0392 11.0761L34.006 10.9932C33.923 10.8273 33.923 10.6613 34.006 10.4954V10.4125C34.0392 10.2797 33.9728 10.1304 33.8401 10.0806H33.7073C33.4419 9.99769 33.2096 9.84837 33.0437 9.63269L32.8778 9.46677C32.7119 9.30086 32.6123 9.05199 32.546 8.80313C32.463 8.58744 32.2805 8.42153 32.0482 8.42153H31.3514C31.1025 8.38835 30.8868 8.25562 30.7375 8.05652L30.6712 7.97357C30.555 7.80765 30.4555 7.60856 30.3891 7.40946C30.3061 7.24355 30.1236 7.14401 29.9577 7.19378L29.7586 7.26014C29.4268 7.37628 29.095 7.42606 28.7632 7.39287L28.4977 7.35969C28.2157 7.35969 27.9502 7.24355 27.7345 7.07764L27.5686 6.9615C27.4359 6.86195 27.3031 6.79559 27.1538 6.72922C26.9879 6.66286 26.8552 6.69604 26.7556 6.81218L26.6727 6.91173C26.5068 7.07764 26.2745 7.21037 26.0422 7.24355L25.1463 7.29333C24.9804 7.29333 24.8145 7.37628 24.6983 7.49242C24.5656 7.60856 24.4163 7.69151 24.2504 7.7247H24.2172C24.0513 7.7247 23.8853 7.84084 23.7194 7.95697V7.99016C23.5535 8.15607 23.3378 8.23902 23.1221 8.23902L23.0558 8.27221C22.8567 8.27221 22.6576 8.27221 22.4585 8.32198H22.2594C21.9774 8.37175 21.7617 8.60403 21.6953 8.90267L21.6289 9.28427C21.5792 9.54973 21.463 9.78201 21.2971 9.99769C21.1312 10.1968 20.9321 10.3295 20.6832 10.3295H20.4344H20.4012C20.2353 10.3627 20.0694 10.5452 20.1025 10.7443C20.1357 11.0263 20.1025 11.2752 20.0528 11.5241L19.9864 11.8061C19.92 12.055 19.7541 12.2541 19.5384 12.3371L19.4389 12.3868H19.4057C19.3062 12.4532 19.2398 12.6025 19.3228 12.7187C19.4223 12.8846 19.4555 13.0505 19.4389 13.2164L19.3891 13.7473C19.3891 13.9464 19.3062 14.1289 19.2232 14.2948C19.1237 14.4607 19.1237 14.6266 19.19 14.7926L19.3559 15.1576C19.4389 15.3235 19.4555 15.4894 19.4057 15.6885C19.3559 15.8544 19.3228 16.0203 19.3394 16.1862C19.3394 16.3521 19.4389 16.518 19.5716 16.5844L19.6048 16.6176L19.638 16.6508ZM32.7451 28.6462C32.911 28.8121 33.1598 28.8785 33.3589 28.7458L33.6908 28.5301C33.8567 28.4139 33.9894 28.248 34.0558 28.0323V27.9992L34.2217 27.5014L34.3212 27.3355L34.3876 27.1696L34.4539 27.0535C34.5203 26.9207 34.6199 26.8212 34.7858 26.7714L34.8521 26.7382C34.9849 26.705 35.0678 26.5723 35.0678 26.4396C35.0678 26.2737 35.1508 26.1409 35.2337 26.0248L35.3665 25.9087L35.6983 25.4773V25.4441C35.7978 25.3114 35.8642 25.1621 35.8974 24.9961C35.9306 24.8302 35.8974 24.6643 35.831 24.4984L35.7978 24.432C35.7315 24.2661 35.6983 24.15 35.6817 24.0007L35.6319 23.5361L35.5821 23.0384C35.5821 22.8725 35.6485 22.7066 35.7481 22.5406C35.8642 22.4079 35.9472 22.242 36.0135 22.0761V22.0097L36.0467 21.9765C36.0799 21.8106 35.9969 21.6447 35.8476 21.6447C35.6817 21.5618 35.5158 21.429 35.466 21.2299L35.4162 21.1304C35.3333 20.8318 35.2835 20.5331 35.2835 20.2345L35.3167 19.4049V19.3551C35.3167 19.0731 35.0844 18.8574 34.819 18.8574H34.7858C34.4539 18.8574 34.1885 18.7579 33.9562 18.5256L33.8235 18.3597L33.4917 17.9781L33.0603 17.4803C32.8944 17.2481 32.7285 17.049 32.5128 16.8499C32.3469 16.684 32.098 16.518 31.8491 16.4849L31.5173 16.4351C31.3514 16.4019 31.1357 16.3189 30.9532 16.2028C30.8205 16.1033 30.6214 16.1364 30.4886 16.2692L30.273 16.5014L30.1734 16.5678C30.0573 16.601 29.9411 16.5346 29.8914 16.4019C29.825 16.2028 29.825 15.9705 29.9245 15.7714V15.6719C29.9245 15.5557 29.825 15.4728 29.7255 15.506H29.46C29.1613 15.506 28.8627 15.4728 28.5807 15.3401L28.4147 15.2737C28.2488 15.1907 28.0497 15.141 27.8672 15.141C27.7013 15.141 27.5354 15.1742 27.3695 15.2737L27.3031 15.3235C27.104 15.4562 26.8718 15.5226 26.6395 15.5392H26.092C25.8431 15.5392 25.5942 15.6221 25.4283 15.7548C25.2126 15.8876 24.9804 15.9705 24.7315 16.0203L24.2835 16.0867C24.0844 16.1364 23.8688 16.2194 23.6862 16.3687C23.5203 16.5346 23.2881 16.6342 23.0724 16.7005L22.9894 16.7337C22.724 16.8167 22.4917 16.9826 22.3258 17.2315L22.1267 17.4306C22.0105 17.5965 22.0105 17.7956 22.1267 17.9615C22.2262 18.1274 22.4253 18.1772 22.6244 18.1274L22.8733 18.0278C23.006 17.9781 23.1553 18.0278 23.2715 18.0942C23.371 18.1772 23.5203 18.2269 23.6697 18.2103L24.0844 18.1606C24.3167 18.1606 24.549 18.1606 24.7813 18.2269C25.0301 18.3099 25.2458 18.3928 25.4449 18.5588C25.644 18.7247 25.8597 18.791 26.1086 18.8242C26.3574 18.8574 26.6063 18.9072 26.8386 18.9901L27.0045 19.0233C27.1704 19.0731 27.3031 19.1892 27.4027 19.3551C27.4856 19.4879 27.5686 19.687 27.5686 19.8529V19.9026C27.5686 20.1017 27.7345 20.2345 27.9004 20.2345H28C28.2654 20.2345 28.5475 20.2677 28.8295 20.3506L28.9457 20.4004C29.1116 20.4667 29.2775 20.5663 29.3936 20.7322C29.5264 20.8981 29.6093 21.064 29.6591 21.2299L29.7089 21.4622C29.7586 21.7111 29.7752 21.96 29.7752 22.2254V22.3084C29.7752 22.4743 29.8914 22.6402 30.0739 22.7066C30.2398 22.7397 30.4389 22.8061 30.6214 22.9057L30.7043 22.9388C30.92 23.0716 31.1357 23.2375 31.3016 23.4366L31.3846 23.5527C31.6003 23.8016 31.7164 24.1168 31.7164 24.432V24.5482C31.7164 24.7971 31.6666 25.0459 31.5837 25.2782C31.5173 25.4773 31.5837 25.7096 31.7994 25.7759L31.9155 25.8589C32.1644 25.9584 32.38 26.1409 32.546 26.3566C32.7119 26.6055 32.7782 26.8875 32.7782 27.1862V27.6839C32.7451 27.8498 32.6953 27.9826 32.6123 28.0987C32.5294 28.2148 32.5294 28.3808 32.6123 28.4969L32.7119 28.6628L32.7451 28.6462ZM22.1267 20.1515H22.0935C22.0271 20.1515 21.9939 20.2345 22.0105 20.3174L22.0769 20.6492C22.1433 20.9147 22.1764 21.1802 22.2096 21.4456C22.2428 21.7111 22.3755 21.9434 22.5746 22.1093H22.641C22.8899 22.3084 23.0392 22.607 23.0558 22.9057V23.7352C23.0226 23.9011 23.0558 24.067 23.1553 24.1998L23.2383 24.2827C23.4042 24.4818 23.4706 24.7141 23.4872 24.9464L23.5369 25.8589C23.5369 26.0746 23.4042 26.2571 23.2051 26.2903L23.0392 26.3234C22.9231 26.3234 22.8733 26.4562 22.8733 26.5723C22.8733 26.705 22.9231 26.8544 22.9728 26.9871V27.0203C23.0226 27.1862 23.0392 27.3521 23.0226 27.518L22.9562 27.966C22.8899 28.2978 22.7903 28.5964 22.6244 28.8951L22.5083 29.0942C22.4253 29.2601 22.3092 29.3596 22.1764 29.426C22.0105 29.4924 21.8944 29.6251 21.8446 29.791L21.7119 30.3883C21.6289 30.7201 21.4796 31.0519 21.2805 31.3838H21.2473C21.0482 31.6492 20.7994 31.8815 20.5007 32.0474L20.3016 32.1801L19.8039 32.429C19.638 32.4954 19.5384 32.6447 19.5053 32.8272L19.4223 33.3747C19.3725 33.7065 19.2564 33.9886 19.0241 34.2043L18.8084 34.4531L18.5596 34.702L18.3107 34.9675C18.1116 35.1997 17.813 35.2993 17.4811 35.2495L16.8839 35.1334L16.3363 35.067H16.187C16.1207 35.1334 16.1041 35.2329 16.1538 35.3325C16.27 35.5316 16.4525 35.6643 16.6516 35.6643L17.0166 35.7307C17.1825 35.7307 17.3816 35.8136 17.5475 35.8966C17.7134 36.0127 17.8793 36.0957 18.0784 36.1454H18.1116C18.3273 36.2284 18.5596 36.245 18.7753 36.2284L19.0241 36.1952C19.3062 36.162 19.5716 36.1952 19.8039 36.2948L20.003 36.3611C20.086 36.3943 20.2187 36.3611 20.3016 36.2782C20.4012 36.1786 20.5007 36.1123 20.6335 36.0625L20.7662 36.0293C20.9819 35.9629 21.1976 35.9298 21.4298 35.9298H21.5626C21.7617 35.9298 21.9442 35.9629 22.1101 36.0625L22.1764 36.0957C22.2926 36.1454 22.4253 36.0957 22.5083 35.9961C22.558 35.88 22.6742 35.7638 22.7903 35.6643L23.2051 35.3822L23.4706 35.2163L23.6033 35.1334C23.7692 35.0172 24.0015 34.9675 24.2006 34.9675L24.7979 34.9177C25.0301 34.8845 25.2292 34.7186 25.2956 34.4863C25.362 34.2374 25.4615 33.9886 25.6274 33.7729C25.7933 33.5572 25.9592 33.3747 26.1252 33.2088C26.3408 33.0429 26.5565 32.9599 26.7888 32.9433H26.9215C27.187 32.8936 27.3861 32.6447 27.3695 32.3792V32.3461V31.2676C27.4027 31.1017 27.469 30.886 27.5686 30.7201L27.9004 30.2224L28.0331 30.0565C28.1327 29.9735 28.1991 29.8574 28.3152 29.7246L28.4811 29.509C28.5807 29.343 28.5807 29.1274 28.4479 28.978C28.282 28.8121 28.1991 28.5798 28.1659 28.3476V28.2812C28.1327 28.0157 28.1327 27.7337 28.2157 27.4516V27.3687C28.2986 27.153 28.4147 26.9373 28.5475 26.7382C28.6802 26.5723 28.6636 26.34 28.4977 26.2073L28.2157 25.9584C27.9834 25.7593 27.8506 25.4607 27.8175 25.1621L27.7843 24.8302C27.7843 24.7307 27.7843 24.6145 27.7511 24.4984L27.7179 24.2495C27.6847 23.9675 27.5188 23.7518 27.2865 23.5859L27.1704 23.5527C27.0045 23.4532 26.8386 23.3038 26.7058 23.1047C26.5731 22.9388 26.5068 22.7066 26.457 22.4743L26.4072 22.1922C26.4072 22.0927 26.3408 22.0263 26.2413 21.9765L25.9758 21.8936L25.4449 21.7277C25.279 21.6945 25.1131 21.5618 24.997 21.4456H24.9638C24.8642 21.3129 24.6983 21.3129 24.5988 21.4124L24.4329 21.5784C24.3997 21.6281 24.3665 21.6447 24.3167 21.6281C24.2172 21.6281 24.1508 21.5452 24.184 21.4622C24.2172 21.1968 24.1176 20.9313 23.9019 20.7654L23.6862 20.5995L23.1885 20.2677C23.0558 20.2179 22.8567 20.2677 22.7903 20.4336L22.724 20.5331C22.724 20.5663 22.6742 20.5829 22.6576 20.5995C22.5912 20.5995 22.4917 20.5995 22.4917 20.5165L22.4419 20.4336C22.3921 20.334 22.276 20.2677 22.1764 20.2345L22.1267 20.1515ZM20.1357 21.8106L20.0528 21.7277C19.9698 21.6613 19.8869 21.6779 19.8039 21.7609C19.6878 21.96 19.5882 22.1756 19.5384 22.3913V22.4245C19.4887 22.6402 19.2896 22.7895 19.0905 22.7563H18.9246H18.8914C18.6591 22.7563 18.4766 22.9554 18.4766 23.1877C18.4766 23.4863 18.3771 23.785 18.1946 24.0173L18.095 24.1168C17.9291 24.3325 17.6802 24.4818 17.4314 24.5648L17.2986 24.598C17.1327 24.6477 17 24.7639 16.9668 24.963C16.9668 25.1289 16.8673 25.2948 16.7345 25.4275L16.5686 25.5602C16.3695 25.7759 16.0709 25.8921 15.7722 25.9253L14.9427 26.0082C14.6772 26.0082 14.4449 26.1741 14.279 26.423C14.1131 26.6719 13.8643 26.8378 13.6154 26.871L13.2504 26.9041C12.9849 26.9373 12.7029 26.9373 12.4208 26.871L12.2549 26.8378L11.8069 26.7216C11.641 26.6719 11.5083 26.7216 11.4088 26.8378L11.2428 27.0535C11.0272 27.3023 10.7119 27.4185 10.4133 27.3853L9.33485 27.2526C9.16894 27.2526 9.03621 27.1696 8.88689 27.0866C8.72098 26.9871 8.60484 26.871 8.4887 26.7548L8.07392 26.2571C8.02415 26.2239 7.94119 26.2073 7.85823 26.2239L7.62596 26.3234L6.69685 26.5557C6.53094 26.6055 6.31525 26.5557 6.14934 26.4562C5.98343 26.3234 5.78433 26.2903 5.58524 26.2903H5.36955C5.17046 26.34 5.03773 26.5557 5.10409 26.7548L5.17046 27.0866C5.22023 27.2526 5.20364 27.4516 5.12068 27.6176C5.03773 27.7835 5.05432 27.9494 5.17046 28.1153L5.27001 28.248C5.40274 28.4471 5.60183 28.613 5.76774 28.7789C5.93365 28.9449 6.09957 29.1108 6.2323 29.3265L6.48116 29.7744C6.61389 30.0067 6.81299 30.1394 7.07845 30.1394C7.32732 30.1394 7.57618 30.2224 7.77528 30.3883L8.27301 30.8528C8.40574 30.969 8.60484 30.9856 8.73757 30.886L8.82052 30.8528C8.92007 30.8528 8.98644 30.9192 8.98644 31.0188V31.1017C8.98644 31.3174 9.15235 31.5165 9.36803 31.5994L10.1146 31.7654C10.3801 31.8483 10.6456 31.9313 10.8944 32.0972H11.0272C11.1599 32.0972 11.276 31.981 11.2594 31.8317V31.251C11.2594 31.0851 11.3258 30.9192 11.4585 30.8528L11.5415 30.8197C11.6244 30.8528 11.7074 30.9192 11.6742 30.9856V31.2676C11.6742 31.4833 11.7406 31.6824 11.8899 31.8317C12.0558 31.9976 12.2715 32.0308 12.454 31.9645C12.6531 31.8815 12.8522 31.8649 13.0679 31.8815L13.6817 31.9147C13.9804 31.9479 14.2624 31.9147 14.5113 31.7985C14.81 31.699 15.0588 31.5663 15.2911 31.3838L15.3906 31.3174L15.8884 30.8694C16.0543 30.7035 16.27 30.6206 16.4691 30.6206H17.1327C17.4645 30.5874 17.7632 30.2887 17.7964 29.9569L17.8627 29.6251C17.8627 29.4094 17.9623 29.2103 18.1116 29.0444C18.2775 28.8785 18.4434 28.7789 18.6093 28.7126L18.8084 28.6296C19.0905 28.5135 19.3062 28.2646 19.4057 27.966L19.5053 27.5678C19.5882 27.236 19.7541 26.9041 20.003 26.6885L20.0362 26.6553C20.2353 26.4894 20.2685 26.1575 20.1357 25.9253L20.086 25.8091C19.9698 25.6432 19.9532 25.3943 20.0362 25.1787C20.1191 24.9464 20.2021 24.7473 20.3348 24.5482L20.5007 24.3159C20.5671 24.1832 20.5671 23.9841 20.4676 23.8679C20.368 23.7352 20.3016 23.5693 20.3016 23.4034L20.2685 23.1711V22.607C20.3016 22.4411 20.2685 22.2254 20.2187 22.0595L20.1523 21.8604L20.1357 21.8106ZM17.7632 20.5497V20.4999C17.7632 20.334 17.6636 20.2345 17.5309 20.2345H17.0995C16.9336 20.2677 16.7677 20.2677 16.635 20.2345H15.8884C15.5068 20.2345 15.1418 20.1681 14.7768 20.0686L14.3786 19.969L14.0468 19.8695L13.3002 19.6206C12.902 19.5045 12.6033 19.239 12.4208 18.874L12.3379 18.7081C12.2217 18.4592 11.9729 18.3265 11.724 18.3763C11.4419 18.3763 11.1599 18.3763 10.8944 18.2435L10.6953 18.1606C10.3137 17.9947 10.0317 17.6628 10.0317 17.2149L9.96532 16.7669C9.91554 16.5346 9.76622 16.3189 9.56713 16.236C9.33485 16.1364 9.11917 16.0037 8.90348 15.8544L8.82052 15.8046C8.57166 15.6055 8.35597 15.3401 8.23983 15.0248L8.20665 14.9253C8.12369 14.6598 8.1071 14.3778 8.17347 14.0957L8.20665 13.9962C8.27301 13.7805 8.28961 13.5648 8.28961 13.3325C8.28961 13.1334 8.20665 12.9343 8.05733 12.785L7.82505 12.5693C7.55959 12.3536 7.39368 12.0384 7.37709 11.69C7.34391 11.325 7.34391 10.9766 7.41027 10.6282V10.5784V10.5286C7.41027 10.3295 7.24436 10.1968 7.07845 10.1968H7.02867C6.81299 10.1968 6.63048 10.3295 6.53094 10.5286C6.44798 10.7609 6.31525 10.9434 6.16593 11.1259L6.09957 11.2089L5.76774 11.5407L5.60183 11.7066C5.43592 11.8725 5.33637 12.1214 5.30319 12.3702C5.27001 12.6191 5.20364 12.868 5.10409 13.1002L5.07091 13.1832C4.98795 13.3823 4.85523 13.5648 4.68931 13.6809C4.5234 13.8137 4.40726 14.0128 4.40726 14.2119L4.37408 14.9751C4.37408 15.3069 4.32431 15.6387 4.20817 15.9705L4.17499 16.1033C4.09203 16.3189 4.17499 16.5512 4.37408 16.6508L5.07091 16.9494L5.13728 16.9826C5.18705 16.9826 5.20364 17.0158 5.22023 17.0655C5.27001 17.1319 5.22023 17.2315 5.17046 17.2315L5.00455 17.3144C4.905 17.3476 4.83863 17.4471 4.80545 17.5633L4.77227 17.7292V17.7624L4.60636 18.6915C4.57317 18.8242 4.57317 18.9735 4.57317 19.1229C4.57317 19.2556 4.65613 19.3717 4.77227 19.4215L5.13728 19.5874C5.30319 19.687 5.50228 19.8031 5.63501 19.9192L5.80092 20.052C5.8507 20.1183 5.93365 20.1847 6.00002 20.2179L6.06638 20.2842C6.18252 20.3838 6.26548 20.5165 6.29866 20.6658L6.46457 21.4124C6.46457 21.6115 6.63048 21.7775 6.7964 21.8272L7.06186 21.9102C7.06186 21.9102 7.11163 21.9102 7.14481 21.9434L7.47664 22.0429C7.7421 22.1259 7.97437 22.2752 8.17347 22.4743C8.37256 22.6402 8.57166 22.8559 8.73757 23.0882L8.80393 23.1545C8.93666 23.3204 9.13576 23.4034 9.33485 23.3536C9.53395 23.3038 9.74963 23.2873 9.96532 23.2873H10.2142C10.3801 23.2873 10.5958 23.337 10.7783 23.4532C10.9442 23.5527 11.1599 23.6191 11.359 23.702H11.4088C11.6078 23.785 11.8235 23.7518 11.9894 23.6357C12.1554 23.5029 12.371 23.4366 12.5867 23.4366L13.3665 23.4863C13.5324 23.4863 13.6983 23.4532 13.7813 23.3204H13.8145L14.0965 23.055L14.1795 22.972C14.3122 22.8061 14.5113 22.7397 14.7104 22.7232H15.457C15.6561 22.7232 15.8386 22.5572 15.9216 22.3913C16.0045 22.2254 16.1704 22.0927 16.3695 22.0595L16.7013 21.9931C16.8341 21.9931 16.9502 21.877 17 21.7277C17.0498 21.5618 17.1327 21.429 17.2489 21.3295L17.5143 21.064C17.6802 20.8981 17.7632 20.7322 17.7964 20.5331L17.7632 20.5497Z" fill="#CA0202" stroke="#CA0202" stroke-width="2.66667"/>
</svg>
